# xmcd
#
# Track frame offsets:
#	150
#	10352
#	23508
#	43759
#	61443
#	74870
#	96228
#	111878
#	132439
#	144188
#	165041
#	184701
#	198776
#	217268
#	229243
#	247100
#
# Disc length: 3578 seconds
#
# Revision: 0
# Processed by: cddbd v1.5.2PL0 Copyright (c) Steve Scherf et al.
# Submitted via: EZCDAudioConverter 8.3.2.1
#
DISCID=e70df810
DTITLE=Σπανουδάκης Σταμάτης - Ελλάδα στους ώμους τη γη κουβαλάς-Σ. Σπανουδάκης
DYEAR=2012
DGENRE=Ποικίλη
TTITLE0=Άνευ ερμηνευτού - Πύλη του ονείρου
TTITLE1=Άνευ ερμηνευτού - Στρατιώτες γύρω απ' τη φωτιά
TTITLE2=Άνευ ερμηνευτού - Το λιοντάρι του Μοριά
TTITLE3=Παιδική και μεικτή χορ. Σπύρου Λάμπρου - Νά 'μουνα για λίγο εκεί
TTITLE4=Άνευ ερμηνευτού - Μαύρος καβαλάρης
TTITLE5=Άνευ ερμηνευτού - Για τη Σμύρνη
TTITLE6=Μεικτή χορ. Σπύρου Λάμπρου - Άλε Ισκάνταρ
TTITLE7=Μπιλάλης Γιώργος-Μπιλαλης Κωνσταντίνος - Κύριε των δυνάμεων
TTITLE8=Άνευ ερμηνευτού - Τάμαλο
TTITLE9=Άνευ ερμηνευτού - Δρόμος της άνοιξης
TTITLE10=Παιδική χορ. Σπύρου Λάμπρου - Χαίρε, θάλασσά μου
TTITLE11=Άνευ ερμηνευτού - Άγγελοι μετά ποιμένων
TTITLE12=Παιδική χορ. Σπύρου Λάμπρου - Πόλη γλυκιά (γλυκειά)
TTITLE13=Παιδική χορ. Σπύρου Λάμπρου - Ζει και βασιλεύει
TTITLE14=Παιδική χορ. Σπύρου Λάμπρου - Πέτρινα χρόνια
TTITLE15=Μεικτή χορ. Σπύρου Λάμπρου - Θά 'ρθεις σαν αστραπή
EXTD=
EXTT0=
EXTT1=
EXTT2=
EXTT3=
EXTT4=
EXTT5=
EXTT6=
EXTT7=
EXTT8=
EXTT9=
EXTT10=
EXTT11=
EXTT12=
EXTT13=
EXTT14=
EXTT15=
PLAYORDER=
